<?xml version="1.0" encoding="UTF-8" standalone="no"?>
<!DOCTYPE svg PUBLIC "-//W3C//DTD SVG 1.1//EN"
 "http://www.w3.org/Graphics/SVG/1.1/DTD/svg11.dtd">
<!-- Generated by graphviz version 13.1.0 (20250701.0955)
 -->
<!-- Title: G Pages: 1 -->
<svg width="1992pt" height="370pt"
 viewBox="0.00 0.00 1992.00 370.00" xmlns="http://www.w3.org/2000/svg" xmlns:xlink="http://www.w3.org/1999/xlink">
<g id="graph0" class="graph" transform="scale(2.77778 2.77778) rotate(0) translate(4 129.25)">
<title>G</title>
<polygon fill="white" stroke="none" points="-4,4 -4,-129.25 713,-129.25 713,4 -4,4"/>
<!-- 1832483445648 -->
<g id="node1" class="node">
<title>1832483445648</title>
<polygon fill="none" stroke="black" points="0,-0.5 0,-124.75 340.25,-124.75 340.25,-0.5 0,-0.5"/>
<polygon fill="black" stroke="none" points="0,-0.5 0,-124.75 340.25,-124.75 340.25,-0.5 0,-0.5"/>
<polygon fill="black" stroke="none" points="2,-82 2,-122.75 338.25,-122.75 338.25,-82 2,-82"/>
<polygon fill="none" stroke="black" points="2,-82 2,-122.75 338.25,-122.75 338.25,-82 2,-82"/>
<text xml:space="preserve" text-anchor="start" x="114.25" y="-97.55" font-family="Helvetica,sans-Serif" font-weight="bold" font-size="16.00" fill="white">Oculta</text>
<text xml:space="preserve" text-anchor="start" x="164.5" y="-97.55" font-family="Helvetica,sans-Serif" font-size="16.00" fill="white"> (Dense)</text>
<polygon fill="white" stroke="none" points="2,-42.25 2,-80 338.25,-80 338.25,-42.25 2,-42.25"/>
<polygon fill="none" stroke="black" points="2,-42.25 2,-80 338.25,-80 338.25,-42.25 2,-42.25"/>
<text xml:space="preserve" text-anchor="start" x="124.75" y="-56.7" font-family="Helvetica,sans-Serif" font-size="14.00">Activation: </text>
<text xml:space="preserve" text-anchor="start" x="190.75" y="-56.7" font-family="Helvetica,sans-Serif" font-weight="bold" font-size="14.00">relu</text>
<polygon fill="white" stroke="none" points="2,-2.5 2,-40.25 167.25,-40.25 167.25,-2.5 2,-2.5"/>
<polygon fill="none" stroke="black" points="2,-2.5 2,-40.25 167.25,-40.25 167.25,-2.5 2,-2.5"/>
<text xml:space="preserve" text-anchor="start" x="13" y="-16.95" font-family="Helvetica,sans-Serif" font-size="14.00">Input shape: </text>
<text xml:space="preserve" text-anchor="start" x="91" y="-16.95" font-family="Helvetica,sans-Serif" font-weight="bold" font-size="14.00">(None, 20)</text>
<polygon fill="white" stroke="none" points="169.25,-2.5 169.25,-40.25 338.25,-40.25 338.25,-2.5 169.25,-2.5"/>
<polygon fill="none" stroke="black" points="169.25,-2.5 169.25,-40.25 338.25,-40.25 338.25,-2.5 169.25,-2.5"/>
<text xml:space="preserve" text-anchor="start" x="180.25" y="-16.95" font-family="Helvetica,sans-Serif" font-size="14.00">Output shape: </text>
<text xml:space="preserve" text-anchor="start" x="269.5" y="-16.95" font-family="Helvetica,sans-Serif" font-weight="bold" font-size="14.00">(None, 5)</text>
</g>
<!-- 1833149178896 -->
<g id="node2" class="node">
<title>1833149178896</title>
<polygon fill="none" stroke="black" points="376.25,-0.5 376.25,-124.75 709,-124.75 709,-0.5 376.25,-0.5"/>
<polygon fill="black" stroke="none" points="376.25,-0.5 376.25,-124.75 709,-124.75 709,-0.5 376.25,-0.5"/>
<polygon fill="black" stroke="none" points="378.25,-82 378.25,-122.75 707,-122.75 707,-82 378.25,-82"/>
<polygon fill="none" stroke="black" points="378.25,-82 378.25,-122.75 707,-122.75 707,-82 378.25,-82"/>
<text xml:space="preserve" text-anchor="start" x="488.25" y="-97.55" font-family="Helvetica,sans-Serif" font-weight="bold" font-size="16.00" fill="white">Salida</text>
<text xml:space="preserve" text-anchor="start" x="535.5" y="-97.55" font-family="Helvetica,sans-Serif" font-size="16.00" fill="white"> (Dense)</text>
<polygon fill="white" stroke="none" points="378.25,-42.25 378.25,-80 707,-80 707,-42.25 378.25,-42.25"/>
<polygon fill="none" stroke="black" points="378.25,-42.25 378.25,-80 707,-80 707,-42.25 378.25,-42.25"/>
<text xml:space="preserve" text-anchor="start" x="483.38" y="-56.7" font-family="Helvetica,sans-Serif" font-size="14.00">Activation: </text>
<text xml:space="preserve" text-anchor="start" x="549.38" y="-56.7" font-family="Helvetica,sans-Serif" font-weight="bold" font-size="14.00">softmax</text>
<polygon fill="white" stroke="none" points="378.25,-2.5 378.25,-40.25 536,-40.25 536,-2.5 378.25,-2.5"/>
<polygon fill="none" stroke="black" points="378.25,-2.5 378.25,-40.25 536,-40.25 536,-2.5 378.25,-2.5"/>
<text xml:space="preserve" text-anchor="start" x="389.25" y="-16.95" font-family="Helvetica,sans-Serif" font-size="14.00">Input shape: </text>
<text xml:space="preserve" text-anchor="start" x="467.25" y="-16.95" font-family="Helvetica,sans-Serif" font-weight="bold" font-size="14.00">(None, 5)</text>
<polygon fill="white" stroke="none" points="538,-2.5 538,-40.25 707,-40.25 707,-2.5 538,-2.5"/>
<polygon fill="none" stroke="black" points="538,-2.5 538,-40.25 707,-40.25 707,-2.5 538,-2.5"/>
<text xml:space="preserve" text-anchor="start" x="549" y="-16.95" font-family="Helvetica,sans-Serif" font-size="14.00">Output shape: </text>
<text xml:space="preserve" text-anchor="start" x="638.25" y="-16.95" font-family="Helvetica,sans-Serif" font-weight="bold" font-size="14.00">(None, 3)</text>
</g>
<!-- 1832483445648&#45;&gt;1833149178896 -->
<g id="edge1" class="edge">
<title>1832483445648&#45;&gt;1833149178896</title>
<path fill="none" stroke="black" stroke-width="2" d="M340.57,-62.62C340.57,-62.62 362.95,-62.62 362.95,-62.62"/>
<polygon fill="black" stroke="black" stroke-width="2" points="362.95,-66.13 372.95,-62.63 362.95,-59.13 362.95,-66.13"/>
</g>
</g>
</svg>
